Coordinates
version=1
nRows=18
nColumns=22
inDegrees=yes

Units are S.I. units (second, meters, Newtons, ...)
If the header above contains a line with 'inDegrees', this indicates whether rotational values are in degrees (yes) or radians (no).

endheader
time	pelvis_tilt	pelvis_list	pelvis_rotation	pelvis_tx	pelvis_ty	pelvis_tz	hip_flexion_r	hip_adduction_r	hip_rotation_r	knee_angle_r	ankle_angle_r	subtalar_angle_r	hip_flexion_l	hip_adduction_l	hip_rotation_l	knee_angle_l	ankle_angle_l	subtalar_angle_l	lumbar_extension	lumbar_bending	lumbar_rotation
      1.80000000	      2.49436034	      2.29054037	    134.70044391	     -0.31488811	      0.94844577	      0.78802557	      1.85407124	     13.89520315	      6.93575042	    -15.18592400	     11.93886807	    -10.51261958	     30.86040763	     -6.91888320	      6.06213725	    -51.11395662	      8.52907862	      7.80130647	     -8.24180551	      3.80854804	      8.66152414
      1.81000000	      2.57112459	      2.25795430	    133.94606900	     -0.31935851	      0.94792833	      0.78213600	      1.02748995	     13.88702023	      7.68197763	    -14.66503218	     12.17635006	    -10.48324753	     31.05010067	     -6.52731890	      7.08894974	    -48.37514510	      8.77173278	      8.49557137	     -8.19060824	      3.84534152	      8.89048590
      1.82000000	      2.64931513	      2.21328380	    133.21488730	     -0.32385272	      0.94730972	      0.77623366	      0.23784219	     13.85775919	      8.42486515	    -14.19049896	     12.43728078	    -10.43821703	     31.13719226	     -6.13819230	      8.20284190	    -45.48265643	      8.98125878	      9.23003665	     -8.13439122	      3.88018601	      9.09668615
      1.83000000	      2.74584146	      2.15608384	    132.52570363	     -0.32837263	      0.94655533	      0.77029858	     -0.49602842	     13.82248713	      9.08936781	    -13.76147635	     12.70124095	    -10.37235732	     31.14429951	     -5.76738490	      9.44045665	    -42.46713784	      9.24444881	     10.08826560	     -8.05411700	      3.91851133	      9.25641127
      1.84000000	      2.86428923	      2.07928580	    131.86002810	     -0.33287434	      0.94565719	      0.76432292	     -1.15075200	     13.78819035	      9.72437602	    -13.41188650	     12.98302942	    -10.29634292	     31.08257048	     -5.44374464	     10.76397638	    -39.34676540	      9.52203923	     10.96953669	     -7.94766535	      3.95732724	      9.39626302
      1.85000000	      2.99241565	      1.99298870	    131.21262034	     -0.33734486	      0.94463796	      0.75827757	     -1.74594752	     13.75705021	     10.33240421	    -13.13970818	     13.28212617	    -10.21606316	     30.94286893	     -5.18601501	     12.15323533	    -36.15800619	      9.82606766	     11.87689132	     -7.83167042	      3.98886780	      9.52583221
      1.86000000	      3.14113005	      1.89511554	    130.57049226	     -0.34175515	      0.94348212	      0.75215821	     -2.26172654	     13.74115847	     10.92787993	    -12.96623954	     13.58916535	    -10.13714179	     30.75333906	     -5.02177931	     13.57157136	    -32.94891155	     10.16727626	     12.77247225	     -7.69850947	      4.01844779	      9.64780236
      1.87000000	      3.30756886	      1.78754585	    129.92892571	     -0.34609675	      0.94219761	      0.74594854	     -2.70277438	     13.74403037	     11.51967415	    -12.89409476	     13.90905797	    -10.06562726	     30.53463022	     -4.96684414	     14.95208061	    -29.77706245	     10.53332603	     13.61590584	     -7.55230857	      4.04482109	      9.77696899
      1.88000000	      3.47487966	      1.67200741	    129.28008464	     -0.35037243	      0.94082173	      0.73966202	     -3.07905037	     13.75389579	     12.10408497	    -12.93178045	     14.26151129	    -10.02497119	     30.29624598	     -5.01198536	     16.22390616	    -26.69993698	     10.83131916	     14.28407773	     -7.40908864	      4.05430092	      9.92997811
      1.89000000	      3.65831503	      1.54440808	    128.61888313	     -0.35456124	      0.93933365	      0.73328754	     -3.37190410	     13.78780951	     12.71096476	    -13.09279755	     14.60745267	     -9.99393550	     30.09133661	     -5.16426409	     17.28908625	    -23.80291863	     11.15986365	     14.84358809	     -7.25315048	      4.05732890	     10.07753301
      1.90000000	      3.84563379	      1.39790081	    127.95268173	     -0.35870559	      0.93775884	      0.72685850	     -3.58932628	     13.82832595	     13.30649295	    -13.36470920	     14.97604130	     -9.98693304	     29.94187675	     -5.38092307	     18.08705090	    -21.15194828	     11.44001580	     15.23796292	     -7.08632237	      4.04315068	     10.24144389
      1.91000000	      4.04631447	      1.22504503	    127.30180144	     -0.36285590	      0.93609528	      0.72042328	     -3.71958051	     13.87907791	     13.86458144	    -13.74076198	     15.38134329	    -10.00996439	     29.88308328	     -5.61946369	     18.62067762	    -18.81055541	     11.62417635	     15.44764452	     -6.89248547	      4.02672575	     10.37980085
      1.92000000	      4.18464504	      1.05038303	    126.62410666	     -0.36698683	      0.93449373	      0.71390926	     -3.84009784	     13.89134982	     14.42656512	    -14.22444408	     15.77275238	    -10.03821503	     29.82867414	     -5.84284025	     18.75824025	    -16.80078027	     11.79823619	     15.62126086	     -6.74942481	      3.94573276	     10.54866338
      1.93000000	      4.28691964	      0.86091412	    125.94942847	     -0.37115656	      0.93291595	      0.70735328	     -3.93206414	     13.87580355	     14.94823722	    -14.78779736	     16.16953477	    -10.07729998	     29.81747683	     -6.01273777	     18.61180561	    -15.16424031	     11.92405198	     15.73849811	     -6.61853344	      3.82328776	     10.70731662
      1.94000000	      4.34718906	      0.65614173	    125.28370635	     -0.37539137	      0.93138507	      0.70076241	     -4.00144322	     13.82496564	     15.42390732	    -15.42296694	     16.54975253	    -10.12237713	     29.83888367	     -6.10228428	     18.25683358	    -13.91082651	     12.00606198	     15.80431991	     -6.50059491	      3.65588101	     10.84885870
      1.95000000	      4.37233827	      0.44083720	    124.63057187	     -0.37970906	      0.92991640	      0.69412088	     -4.06114210	     13.74364943	     15.84884240	    -16.10500135	     16.92138910	    -10.16891011	     29.88132371	     -6.10980517	     17.80515106	    -13.03144214	     12.00366732	     15.81942084	     -6.38984549	      3.45362954	     10.97435025
      1.96000000	      4.36773001	      0.22248126	    123.99526046	     -0.38410930	      0.92852691	      0.68741583	     -4.12020766	     13.64024063	     16.22589657	    -16.82010869	     17.24969886	    -10.21082246	     29.93001785	     -6.03980808	     17.36391466	    -12.50447103	     11.92720299	     15.76446436	     -6.28874138	      3.22635778	     11.08079838
      1.97000000	      4.34206067	      0.00323985	    123.37715039	     -0.38859308	      0.92722270	      0.68061439	     -4.18746450	     13.52019341	     16.56179071	    -17.54729035	     17.53229740	    -10.24564446	     29.97840044	     -5.90550765	     17.00914551	    -12.30115667	     11.74585300	     15.62360200	     -6.18703327	      2.97996652	     11.16881582
